<svg width="18" height="13" viewBox="0 0 18 13" fill="none" xmlns="http://www.w3.org/2000/svg">
    <path d="M9.05793 12.293C7.1329 12.2804 5.23193 11.8662 3.47785 11.0772C3.37343 11.0309 3.28481 10.9554 3.22276 10.8599C3.16072 10.7644 3.12794 10.653 3.12842 10.5393V5.76564C3.1286 5.60925 3.19113 5.45932 3.30229 5.34874C3.41345 5.23815 3.56417 5.17595 3.72137 5.17578H14.3945C14.5517 5.17596 14.7024 5.23816 14.8136 5.34874C14.9247 5.45932 14.9873 5.60925 14.9874 5.76564V10.5393C14.9879 10.653 14.9551 10.7644 14.8931 10.8599C14.8311 10.9554 14.7424 11.0309 14.638 11.0772C12.8839 11.8662 10.983 12.2804 9.05793 12.293V12.293Z" fill="#CC63FF" />
    <path d="M9.05652 8.42581C8.9774 8.42588 8.89905 8.41021 8.8261 8.37972L0.362455 4.82753C0.253309 4.78173 0.160458 4.70445 0.0958727 4.60567C0.0312876 4.50688 -0.00207099 4.39112 9.95775e-05 4.27329C0.00227015 4.15547 0.0398727 4.041 0.108053 3.94463C0.176233 3.84827 0.271866 3.77442 0.382625 3.73263L8.84639 0.538531C8.98271 0.486849 9.13343 0.487168 9.26953 0.539427L17.6199 3.73352C17.73 3.77565 17.825 3.84951 17.8927 3.94565C17.9604 4.04178 17.9977 4.15582 17.9999 4.27318C18.0021 4.39054 17.969 4.50587 17.9049 4.60443C17.8409 4.70299 17.7487 4.78029 17.6402 4.82644L9.28974 8.37857C9.216 8.40981 9.13667 8.42588 9.05652 8.42581V8.42581Z" fill="#CC63FF" />
    <path d="M4.11677 11.4021C4.55341 11.4021 4.90738 11.05 4.90738 10.6156C4.90738 10.1813 4.55341 9.82916 4.11677 9.82916C3.68014 9.82916 3.32617 10.1813 3.32617 10.6156C3.32617 11.05 3.68014 11.4021 4.11677 11.4021Z" fill="#3F3D56" />
    <path opacity="0.2" d="M17.6693 4.32217L9.31879 7.8743C9.25369 7.90199 9.18365 7.91635 9.11285 7.91652C9.04204 7.91669 8.97193 7.90267 8.9067 7.87529L0.443053 4.32321C0.336762 4.27966 0.248086 4.20213 0.191036 4.10285C0.153716 4.16723 0.130591 4.23877 0.123194 4.31271C0.115797 4.38666 0.124298 4.46133 0.148133 4.53176C0.171969 4.60219 0.210591 4.66677 0.261439 4.72121C0.312287 4.77565 0.374194 4.81871 0.443053 4.84752L8.9067 8.39961C8.97193 8.42699 9.04204 8.44101 9.11285 8.44084C9.18365 8.44067 9.25369 8.42631 9.31879 8.39862L17.6693 4.84648C17.7378 4.81741 17.7993 4.77422 17.8498 4.71976C17.9003 4.66529 17.9386 4.60079 17.9622 4.53051C17.9858 4.46023 17.9941 4.38578 17.9867 4.31206C17.9792 4.23834 17.9561 4.16703 17.9189 4.10284C17.8623 4.20132 17.7745 4.27843 17.6693 4.32217V4.32217Z" fill="black" />
    <path d="M4.18304 10.6126C4.21798 10.6126 4.2515 10.5988 4.27621 10.5742C4.30092 10.5496 4.3148 10.5162 4.3148 10.4815V6.09539L8.66063 4.52046C8.69558 4.52098 8.7293 4.50766 8.75438 4.48345C8.77946 4.45923 8.79384 4.4261 8.79436 4.39133C8.79488 4.35657 8.7815 4.32302 8.75716 4.29807C8.73282 4.27312 8.69951 4.25882 8.66456 4.2583L4.31873 5.83323C4.28376 5.83243 4.24899 5.8387 4.21652 5.85166C4.18406 5.86462 4.15458 5.884 4.12986 5.90863C4.10488 5.93296 4.08506 5.96202 4.07156 5.9941C4.05806 6.02618 4.05116 6.06062 4.05127 6.09539V10.4815C4.05127 10.5162 4.06516 10.5496 4.08987 10.5742C4.11458 10.5987 4.14809 10.6126 4.18304 10.6126V10.6126Z" fill="#3F3D56" />
</svg>