<svg width="16" height="9" viewBox="0 0 16 9" fill="none" xmlns="http://www.w3.org/2000/svg">
<path d="M8.43317 3.16667C7.8865 1.61333 6.4065 0.5 4.6665 0.5C2.45984 0.5 0.666504 2.29333 0.666504 4.5C0.666504 6.70667 2.45984 8.5 4.6665 8.5C6.4065 8.5 7.8865 7.38667 8.43317 5.83333H11.3332V8.5H13.9998V5.83333H15.3332V3.16667H8.43317ZM4.6665 5.83333C3.93317 5.83333 3.33317 5.23333 3.33317 4.5C3.33317 3.76667 3.93317 3.16667 4.6665 3.16667C5.39984 3.16667 5.99984 3.76667 5.99984 4.5C5.99984 5.23333 5.39984 5.83333 4.6665 5.83333Z" fill="black" fill-opacity="0.6"/>
</svg>
