<svg width="17" height="17" viewBox="0 0 17 17" fill="none" xmlns="http://www.w3.org/2000/svg">
<path d="M10.8333 10.0339H10.3067L10.12 9.85389C10.7733 9.09389 11.1667 8.10723 11.1667 7.03389C11.1667 4.64056 9.22667 2.70056 6.83333 2.70056C4.44 2.70056 2.5 4.64056 2.5 7.03389C2.5 9.42723 4.44 11.3672 6.83333 11.3672C7.90667 11.3672 8.89333 10.9739 9.65333 10.3206L9.83333 10.5072V11.0339L13.1667 14.3606L14.16 13.3672L10.8333 10.0339V10.0339ZM6.83333 10.0339C5.17333 10.0339 3.83333 8.6939 3.83333 7.03389C3.83333 5.37389 5.17333 4.03389 6.83333 4.03389C8.49333 4.03389 9.83333 5.37389 9.83333 7.03389C9.83333 8.6939 8.49333 10.0339 6.83333 10.0339Z" fill="#FFAD60" fill-opacity="1"/>
</svg>
