<svg width="17" height="17" viewBox="0 0 17 17" fill="none" xmlns="http://www.w3.org/2000/svg">
    <path d="M10.8333 10.034H10.3067L10.12 9.85402C10.7733 9.09402 11.1667 8.10735 11.1667 7.03402C11.1667 4.64068 9.22667 2.70068 6.83333 2.70068C4.44 2.70068 2.5 4.64068 2.5 7.03402C2.5 9.42735 4.44 11.3674 6.83333 11.3674C7.90667 11.3674 8.89333 10.974 9.65333 10.3207L9.83333 10.5074V11.034L13.1667 14.3607L14.16 13.3674L10.8333 10.034ZM6.83333 10.034C5.17333 10.034 3.83333 8.69402 3.83333 7.03402C3.83333 5.37402 5.17333 4.03402 6.83333 4.03402C8.49333 4.03402 9.83333 5.37402 9.83333 7.03402C9.83333 8.69402 8.49333 10.034 6.83333 10.034Z" fill="black" fill-opacity="0.6" />
</svg>