<svg width="14" height="15" viewBox="0 0 14 15" fill="none" xmlns="http://www.w3.org/2000/svg">
<path d="M7.00016 0.833374C3.32016 0.833374 0.333496 3.82004 0.333496 7.50004C0.333496 11.18 3.32016 14.1667 7.00016 14.1667C10.6802 14.1667 13.6668 11.18 13.6668 7.50004C13.6668 3.82004 10.6802 0.833374 7.00016 0.833374ZM7.00016 2.83337C8.10683 2.83337 9.00016 3.72671 9.00016 4.83337C9.00016 5.94004 8.10683 6.83337 7.00016 6.83337C5.8935 6.83337 5.00016 5.94004 5.00016 4.83337C5.00016 3.72671 5.8935 2.83337 7.00016 2.83337ZM7.00016 12.3C5.3335 12.3 3.86016 11.4467 3.00016 10.1534C3.02016 8.82671 5.66683 8.10004 7.00016 8.10004C8.32683 8.10004 10.9802 8.82671 11.0002 10.1534C10.1402 11.4467 8.66683 12.3 7.00016 12.3Z" fill="#FFAD60"/>
</svg>
